<svg xmlns="http://www.w3.org/2000/svg" viewBox="0 0 1000 1000">
  <path d="M425.89 10.9c-10.08.77-27.32 3.29-38.17 5.42-18.41 3.88-26.54 7.36-125.93 55.6-58.32 28.29-111.21 53.67-117.21 56.38l-11.04 4.84-14.34-8.72c-37.2-23.25-57.54-52.7-57.54-83.7 0-8.33-.97-11.63-5.04-16.27-6.98-8.33-18.02-8.52-26.16-.39-4.65 4.84-5.62 7.36-5.62 15.5 0 34.68 22.47 73.62 57.35 99.97 8.52 6.39 15.69 11.63 16.08 12.01.39.19-.77 3.87-2.52 8.33-1.74 4.26-3.1 11.82-3.1 16.66 0 15.89 3.87 20.73 30.81 38.36 101.52 66.46 202.85 101.33 290.81 99.78 14.53-.39 27.32.19 28.67.97 3.49 2.13 64.32 76.72 64.32 78.85 0 3.49-18.21 9.69-34.49 12.01-14.14 1.74-16.86 2.91-20.92 7.75-6.39 7.56-6.01 15.69.97 22.86 5.04 4.84 7.17 5.62 17.05 5.62 18.6 0 37.39-6.2 55.6-18.41l10.27-6.78 9.49 4.07c13.76 6.2 27.32 9.49 39.14 9.49 5.42 0 10.07.77 10.07 1.94 0 3.49-24.02 26.35-33.32 31.77-14.14 8.14-30.03 12.98-49.02 14.72-16.08 1.55-17.83 2.13-22.67 7.75-7.36 7.94-7.17 16.08.19 23.44 5.04 5.04 6.98 5.62 18.21 5.62 36.81 0 83.89-24.02 107.72-54.83 4.65-6.01 8.91-11.04 9.69-11.04.77 0 3.88 8.52 6.97 18.79 3.49 11.82 7.94 21.7 12.01 27.12l6.39 8.33-3.88 15.89c-2.13 8.91-3.88 18.79-3.88 22.08 0 17.44 13.56 40.49 30.03 50.96l8.52 5.42-8.52 10.27c-4.65 5.62-9.49 13.95-10.66 18.6-2.33 8.14-1.74 26.74.97 37.78 1.36 5.23 1.16 5.23-19.76 10.08-28.48 6.78-39.14 8.72-60.45 10.85-20.34 2.32-30.42 6.39-43.4 17.63-12.98 11.43-17.44 22.47-16.47 40.88.58 13.18 1.36 15.89 6.59 22.48 3.29 4.07 9.3 9.11 13.56 11.24 10.46 5.23 37.2 6.01 72.27 2.13 26.93-2.91 52.5-4.07 52.5-2.13 0 .39-9.49 17.44-21.12 37.78-24.02 42.04-34.49 64.71-42.04 90.67-4.26 15.5-5.04 20.92-4.26 37.01.58 16.47 1.36 20.15 5.62 26.54 12.21 18.41 40.3 24.61 61.42 13.76 15.5-8.14 24.22-17.25 33.32-34.88 16.86-32.55 39.14-63.16 96.48-132.13 55.02-66.26 67.62-79.63 76.53-81.18 18.21-3.1 38.36-19.18 46.11-37 4.07-9.3 4.26-10.85 2.91-54.64l-1.35-45.14h5.42c7.94 0 24.22-10.08 32.36-19.96 12.4-15.31 15.69-24.99 15.69-46.89l-.19-19.37-30.58-59.84c-17.44-33.91-29.84-60.25-28.87-61.03.97-.58 6.97-4.65 13.37-8.72 14.14-9.3 19.37-15.69 25.57-30.8 5.81-14.53 6.59-39.14 1.75-54.44-6.2-19.18-12.98-25.96-72.65-73.43l-56.77-44.95 1.55-7.75c.77-4.26 1.55-16.47 1.55-27.12 0-17.83-.58-20.54-6.2-32.55-3.49-7.17-10.66-17.82-16.27-23.64-17.44-18.41-17.44-18.41-134.65-37.01-57.35-9.3-111.02-17.24-118.96-18.02-9.49-.97-16.86-2.91-21.31-5.42-23.84-14.53-64.72-21.31-106.57-17.82zm59.68 39.52c22.86 5.42 39.72 16.66 50.37 33.52 9.3 14.53 12.21 27.32 13.37 59.48.97 25.38.58 31-2.91 45.14-11.63 45.53-37.2 71.49-82.73 84.08-13.56 3.68-20.54 4.26-55.22 4.26-34.1.19-42.82-.39-61.8-4.26-46.5-9.49-89.12-24.99-138.72-50.57-26.35-13.56-60.64-33.71-72.65-42.82-9.3-6.97.77-6.59 23.06.78 24.8 8.14 52.12 14.14 73.62 15.89 15.31 1.36 15.5 1.36 21.31-4.65 4.26-4.07 6.01-7.75 6.01-12.01 0-13.17-7.17-18.21-28.09-19.96-18.99-1.74-47.85-7.56-46.11-9.3 1.55-1.36 170.69-83.31 189.48-91.83 8.52-3.88 32.74-9.11 53.28-11.43 12-1.35 45.13.78 57.73 3.68zM673.3 89.17c50.95 8.14 95.32 15.5 98.61 16.66 7.56 2.32 18.02 12.4 21.31 20.54 3.88 9.11 3.29 21.12-1.94 41.46-23.63 90.67-67.23 160.22-123.61 197.42l-18.02 11.82-1.16-8.14c-2.33-16.27-17.44-22.28-29.26-11.62-5.81 5.04-6.39 6.78-6.97 19.37-.97 16.08-1.94 17.05-19.37 18.79-11.24 1.16-34.49-3.49-32.94-6.59 10.27-19.57 15.11-35.65 15.11-51.34 0-9.88-.78-12.01-5.62-17.05-7.36-7.36-15.5-7.56-23.44-.39-5.04 4.84-6 7.36-7.75 21.5-.97 8.72-2.71 17.63-3.88 19.76-2.33 4.46-.78 6.01-29.45-29.26l-16.85-20.34 14.14-6.97c36.81-18.21 67.81-59.09 80.02-105.59 8.33-32.16 6.78-82.53-3.49-112.76-2.13-5.81-3.68-10.85-3.68-11.24.02-1.33 8.35-.17 98.24 13.97zm196.85 172.24c26.35 20.92 49.6 40.88 51.73 44.37 4.65 7.36 5.04 21.89 1.16 31-3.68 8.91-10.07 13.95-43.79 35.65-62.58 40.3-152.28 100.17-159.64 106.37-4.26 3.68-11.24 7.56-15.3 8.72-6.59 1.74-8.91 1.36-18.02-3.1-6.59-3.29-11.62-7.36-13.37-10.85-2.52-4.84-18.41-53.86-18.41-56.77 0-.58 3.68-2.91 8.33-5.23 4.46-2.32 15.11-8.72 23.64-14.34 54.25-35.26 95.71-92.03 126.9-174.17 1.94-5.04 2.33-5.23 5.42-2.71 1.75 1.73 25 20.14 51.35 41.06zm42.62 210.99c23.25 46.5 28.48 58.32 28.48 65.1 0 9.88-3.88 17.82-11.04 22.67-5.23 3.49-10.85 3.68-108.11 4.07-67.42.39-106.17 1.36-112.56 2.71-12.59 2.91-19.76.58-25.38-7.94-4.84-6.97-5.62-15.31-2.33-27.9l2.13-8.52 17.63-.78c18.79-.97 27.9-4.07 41.85-14.92 11.62-8.91 136.78-91.06 138.72-91.06 1.16-.2 14.72 25.38 30.61 56.57zm-26.93 154.8c1.16 24.8 1.55 46.88 1.35 58.32-.19 7.56-8.13 14.92-15.88 14.92-5.62 0-140.66-31.19-163.91-37.78-19.57-5.62-18.79-15.89 3.29-41.27l15.5-17.63 18.79-.77c10.46-.19 46.11-.78 79.24-.97l60.25-.39 1.37 25.57zm-124.77 86.99c32.55 7.56 59.87 14.53 60.84 15.31.77.97-1.94 5.42-6.01 10.07-18.6 20.15-82.34 98.03-102.3 124.58-22.09 29.25-39.52 56.38-47.66 73.43-4.84 10.46-13.18 16.66-22.28 16.66-4.65 0-6.4-.97-7.36-4.46-5.42-20.34 7.94-55.99 44.56-118.76l19.18-32.74v-13.56c0-11.43-.77-15.11-5.42-22.86-2.91-5.04-9.11-11.63-13.37-14.53-10.85-7.17-27.7-7.75-69.75-2.52-37.39 4.65-48.05 5.04-52.5 1.55-2.91-2.13-2.91-2.91-.2-8.53 5.43-10.85 8.53-12.4 33.13-15.3 25.58-3.1 57.54-9.88 85.63-18.21 10.27-2.91 19.96-5.23 21.51-4.65 1.55.37 29.45 6.77 62 14.52z"/>
  <path d="M404.97 83.75c-8.91 4.46-21.31 19.18-22.86 27.12-1.94 10.46 2.52 21.7 12.59 31.97 11.04 11.04 19.57 13.17 32.16 8.52 4.65-1.94 11.62-6.78 15.31-10.85 13.37-14.72 13.17-31.77-.39-46.89-11.62-12.78-24.02-16.26-36.81-9.87z"/>
</svg>
