<svg xmlns="http://www.w3.org/2000/svg" viewBox="0 0 1000 1000">
  <path d="M196.15 93.77c-6.91 7.48-5.76 16.69 3.84 27.63 4.41 4.99 10.55 14.78 13.82 21.68 5.56 11.51 5.95 14.01 5.95 32.62 0 19-.38 21.11-6.14 32.81-3.45 6.91-11.9 19-18.8 26.67-27.82 31.66-37.8 71.19-28.02 109.95 6.52 25.52 21.88 50.47 34.92 56.8 4.99 2.5 6.33 2.5 12.28-.38 7.29-3.46 11.51-10.94 9.79-17.65-.58-2.3-5.18-9.21-10.36-15.54-14.79-18.42-18.43-28.78-18.63-51.62 0-17.08.58-20.53 5.56-31.09 3.07-6.52 11.71-19.57 19.57-28.78 24.37-29.36 32.43-51.81 31.09-86.93-1.34-29.93-10.55-53.15-28.97-73.49-5.57-5.95-7.87-7.1-14.2-7.1-5.37 0-8.82 1.35-11.7 4.42zM399.36 94.34c-6.52 8.25-5.18 15.35 4.8 27.44 22.26 26.67 26.86 58.33 13.05 87.69-2.49 5.18-10.17 16.12-17.08 23.99-20.92 23.99-30.7 46.63-32.81 75.6-2.11 30.32 8.83 63.13 27.82 83.86 8.06 8.64 10.17 9.98 16.5 9.98 5.56 0 8.25-1.34 11.71-5.37 7.1-8.25 5.95-14.2-5.95-29.17-17.65-22.07-23.6-45.67-17.46-69.46 4.03-16.12 8.83-24.75 20.53-38.19 24.75-27.82 34.54-51.81 34.73-84.05 0-31.28-9.98-59.1-28.02-78.67-7.1-7.48-9.21-8.63-15.93-8.63-6.33-.01-8.82 1.14-11.89 4.98zM27.67 464.31c-9.4 4.22-16.69 15.16-17.46 26.67-.77 9.59-.19 10.94 16.5 39.72 9.59 16.31 18.42 32.81 19.38 36.46s1.92 12.66 1.92 20.15c.19 44.33 25.91 82.51 67.74 100.55l11.9 4.99 214.92.58c157.54.38 217.79 0 225.47-1.54 24.75-5.18 50.66-23.79 65.63-47.01 7.1-10.74 13.24-28.01 15.93-43.75l1.15-7.1h149.67c163.88 0 155.24.58 170.59-11.51 9.59-7.48 19.19-26.48 19-37.23-.19-16.12-11.13-33.96-26.1-42.79l-9.21-5.37-132.4-.96-132.23-.97-1.34-6.14c-1.73-8.25-7.48-17.65-13.82-22.45l-5.37-4.03-317.96-.38c-264.81-.39-318.92 0-323.91 2.11zm624.02 33c-.77 1.92-6.72 12.47-13.43 23.6-16.31 27.06-20.34 39.53-22.07 68.31-1.15 18.8-2.3 24.95-6.33 33.77-6.33 13.82-18.04 25.71-32.04 32.24l-10.75 4.99H131.48l-13.05-6.33c-7.1-3.45-12.86-7.1-12.86-8.25 0-.96 37.61-1.73 95.95-1.73h96.14l4.6-4.8c7.1-6.91 6.52-16.5-1.15-22.84l-5.95-4.99H82.93l-.96-7.29c-.38-3.84-.38-7.68 0-8.64.38-.77 34.73-1.34 76.37-1.34 41.45 0 76.95-.58 78.67-1.15 3.65-1.54 8.64-10.55 8.64-15.93 0-2.11-2.11-6.33-4.61-9.21l-4.6-5.37-79.06-.96-79.06-.96-3.45-9.98c-1.92-5.56-9.21-19.38-16.12-31.09-6.9-11.49-12.66-21.86-12.66-23.01 0-1.54 83.09-2.11 303.38-2.11 281.11 0 303.38.19 302.22 3.07zM952 532.43c6.53 5.37 6.53 19.96 0 25.33-4.22 3.46-9.59 3.65-151.21 3.65H654l5.76-10.17c3.07-5.37 7.29-12.86 9.21-16.12l3.65-6.33H810c132.6-.01 137.78.18 142 3.64zM132.25 738.71c-29.75 23.99-40.68 39.53-40.68 58.14 0 13.62 6.91 26.86 28.78 55.65 9.79 13.05 17.85 23.99 17.85 24.56s-15.54.96-34.35.96c-19 0-35.88.58-37.61 1.15-3.65 1.54-8.64 10.55-8.64 16.12 0 2.3 2.49 6.72 5.56 9.79l5.56 5.57h287.26c306.06 0 295.7.38 299.16-8.63 2.49-6.72 1.15-14.58-3.65-19.19l-4.61-4.8h-87.31l18.42-17.27c29.74-27.82 34.92-44.13 22.07-69.66-6.72-13.43-47.01-68.31-50.28-68.31-3.07-.19-33.2 23.99-43.75 35.12-13.05 13.43-18.61 25.14-18.61 38.57 0 14.58 5.37 25.33 27.82 55.07 9.98 13.43 18.23 24.75 18.23 25.33 0 .58-38.19 1.15-84.81 1.15h-84.81l18.61-17.27c22.84-21.49 29.17-32.62 27.82-49.51-.38-6.91-2.69-14.78-5.76-20.72-6.14-11.71-47.78-67.74-50.47-67.93-2.88 0-31.09 22.64-42.41 34.35-5.56 5.56-12.28 14.39-15.16 19.76-4.41 8.06-5.18 11.32-4.41 21.3.96 15.74 5.37 24.18 27.44 53.34 9.98 13.43 18.23 24.75 18.23 25.52 0 .58-38.95 1.15-86.73 1.15h-86.73l18.42-17.27c29.93-28.01 34.92-44.13 21.68-70.23-6.33-12.67-47.59-67.93-50.66-67.93-.75 0-10.34 7.29-21.47 16.12zm28.97 45.67c14.78 19.57 18.23 26.48 16.5 33-1.15 4.8-19.38 24.18-22.45 24.18-1.92 0-20.72-24.18-26.1-33.39-7.1-12.66-5.95-17.65 6.14-29.36 5.76-5.56 11.32-10.17 12.28-10.17s7.11 7.11 13.63 15.74zm196.11-4.8c13.62 17.27 20.72 29.55 20.72 35.69 0 4.22-2.49 8.06-10.75 15.93-5.95 5.76-11.51 10.36-12.47 10.36-1.92 0-23.22-27.82-27.25-35.88-5.76-10.94-4.41-15.74 7.48-26.87 5.95-5.56 11.32-10.17 12.09-10.17.97 0 5.39 4.99 10.18 10.94zm195.73 0c13.62 17.27 20.72 29.55 20.72 35.69 0 4.22-2.49 8.06-10.75 15.93-5.95 5.76-11.51 10.36-12.47 10.36-1.92 0-23.22-27.82-27.25-35.88-5.76-10.94-4.41-15.74 7.48-26.87 5.95-5.56 11.32-10.17 12.09-10.17.97 0 5.39 4.99 10.18 10.94z"/>
</svg>
