<svg xmlns="http://www.w3.org/2000/svg" viewBox="0 0 1000 1000">
  <path d="M692.79 7.75c-12.1 4.49-20.68 12.49-26.34 24l-5.46 11.12-.58 69.67-.59 69.66-129.18.59c-124.3.78-130.16.98-153.18 5.27-13.27 2.34-24.59 3.9-25.17 3.32-.58-.39-3.9-9.56-7.42-20.1-11.51-33.95-29.66-69.08-50.54-97.76l-8.98-12.1-14.24 7.02c-31.22 15.81-67.32 43.91-89.18 69.47-39.42 46.44-51.13 96.4-34.15 146.94l4.49 13.46-19.33 20.49C68.93 386.13 30.49 464.77 14.88 559.02c-3.12 18.34-3.51 42.74-4.1 227.92L10 994.37l207.43-.78c183.63-.58 209.58-.98 226.95-3.9 66.54-11.32 125.86-34.35 178.16-69.08 28.88-19.12 51.13-37.86 76.89-64.59l21.07-21.86h28.3c72.79 0 140.5-20.49 199.04-60.3 27.91-18.73 25.76-15.22 17.56-31.81-16.39-32.78-45.66-69.66-72.98-91.72-18.54-15.02-44.3-28.88-62.45-33.95-11.71-3.32-12.1-3.71-10.73-8.39.78-2.73 1.76-63.81 2.15-135.62l.78-130.35 66.74 1.37c71.23 1.37 71.81 1.37 85.67-8.2 23.61-16.2 19.32-60.69-7.42-77.86-11.32-7.22-15.81-14.24-21.08-32-4.68-15.81-13.66-30.05-22.05-35.32-5.85-3.71-11.13-4.68-26.34-5.66-18.15-1.17-19.51-1.56-25.17-7.03-6.83-7.02-9.76-17.37-8.19-30.05 1.37-11.12-3.51-30.83-10.54-42.74-11.51-19.9-33.76-34.54-55.81-36.88l-11.91-1.37-3.7-12.68c-4.49-15.03-12.49-27.52-22.44-34.15-16.21-11.11-52.5-17.36-67.14-11.7zm29.66 40.98c8 1.76 15.61 4.29 16.78 6.05 1.17 1.56 3.32 8.2 4.68 14.83 3.12 16.59 8.39 25.95 17.56 32 6.64 4.49 10.93 5.46 25.96 6.44 28.1 1.76 35.51 8.59 35.13 32.2-.59 27.71 6.24 47.22 22.44 63.42 12.29 12.29 28.68 20.1 44.88 21.47l12.88 1.17 6.05 17.76c8.98 25.56 18.93 39.03 35.71 47.61 8.59 4.49 9.95 6.63 5.85 9.17-1.37.78-40 1.17-85.86.78l-83.33-.59-.58 148.11-.78 147.91-5.07 26.34c-15.03 75.71-38.05 124.3-89.76 190.26-52.49 66.74-143.04 118.06-236.12 133.48-28.1 4.68-76.88 6.05-233.19 6.05H53.13V770.15c0-116.11.78-188.89 2.15-199.43 9.56-78.25 42.54-153.38 91.91-210.75 16-18.54 55.03-52.1 80.4-69.08 32.78-22.05 67.52-38.25 110.06-51.13 50.35-15.22 66.15-16.39 229.29-16.39H701l.19-67.91c.2-37.27.59-69.08.78-70.64.2-1.56.59-11.12.78-21.07.2-12.88.98-17.95 2.73-17.95 1.17 0 8.97 1.37 16.97 2.93zm-440.43 82.35c15.03 26.54 31.42 69.27 27.52 72.4-.98.98-6.05 3.32-11.51 5.27-29.66 10.73-71.62 32.59-98.35 51.13-14.25 9.95-14.83 9.56-16.98-7.03-2.73-21.66 3.32-46.83 16.98-69.86 8.59-14.44 37.86-43.91 56.2-56.79 8-5.66 15.22-10.15 16-10.15s5.27 6.83 10.14 15.03zm553.42 531.56c25.96 11.9 53.27 36.49 73.37 65.96 7.8 11.51 8.98 14.25 6.83 16.78-3.51 4.29-51.32 27.52-68.3 32.98-21.66 7.02-52.88 13.07-75.91 14.25l-20.49 1.17 4.88-7.61c23.03-37.27 43.91-85.67 52.49-121.38 2.34-10.15 2.54-10.34 8.59-9.17 3.32.77 11.71 3.89 18.54 7.02z"/>
  <path d="M351.69 343v20.3l24.98 2.34c75.32 6.83 136.79 35.91 187.14 88.59 47.03 49.37 74.35 112.2 78.45 180.89l1.17 20.49 20.1.58c16 .39 20.1 0 21.07-2.34 1.56-4.29-2.73-44.3-7.03-65.18-8.59-40.79-29.27-88.2-54.25-123.33-16.78-23.81-56.59-63.62-80.4-80.4-35.32-25.17-84.3-46.64-124.89-55.03-17.17-3.51-46.05-7.03-57.96-7.03h-8.39V343z"/>
  <path d="M283.39 411.49v20.69h9.37c24.98 0 61.66 6.83 91.13 16.98 74.35 25.75 135.62 82.74 167.23 155.13 13.46 31.22 20.88 62.64 24.2 102.45l1.37 16.2h40.98l-1.37-20.1C604.98 537.36 468 400.76 304.47 391.79l-21.07-1.17v20.87z"/>
  <path d="M218.99 475.3v20.49l24.98 2.34c43.71 4.1 73.18 12.29 109.67 30.64 53.27 26.73 96.2 69.08 123.91 122.35 16.39 31.42 28.1 70.25 31.22 103.03.59 7.03 1.56 17.37 2.15 23.03l.97 10.15h40.78v-5.85c0-11.71-4.29-44.3-8.19-62.25-21.85-102.26-96.98-193.19-194.35-236.12-34.54-15.22-72.59-24.39-111.04-26.93l-20.1-1.17v20.29z"/>
  <path d="M152.65 543.8v20.49l19.12 1.17c71.62 4.49 136.01 33.37 186.94 84.3 50.15 49.96 78.45 113.18 83.91 186.75l1.37 19.12h40.39v-10.34c-.2-39.81-14.83-96.2-35.52-136.6-33.95-66.35-84.1-116.3-150.65-149.67-41.96-21.08-82.35-32.39-124.5-34.54l-21.07-1.17v20.49zM127.86 663.61c-10.15 3.71-24.98 16.59-29.86 25.95-12.49 24.59-6.83 61.47 12.1 77.27 11.9 10.15 22.25 13.46 41.56 13.46 26.34 0 42.93-8.98 52.88-28.49 9.95-19.71 10.15-43.52.59-62.25-4.88-9.76-19.71-22.25-30.44-25.95-11.31-3.89-35.7-3.89-46.83.01zm39.03 43.71c3.9 4.29 7.22 9.56 7.22 11.71 0 10.54-11.9 23.42-21.86 23.42-10.54 0-23.03-12.68-23.03-23.22 0-4.68 10.73-17.37 16.39-19.9 6.65-2.74 13.48-.2 21.28 7.99z"/>
</svg>
